<?xml version="1.0" encoding="UTF-8"?>
<svg id="Capa_1" data-name="Capa 1" xmlns="http://www.w3.org/2000/svg" viewBox="0 0 168.39 54.97">
  <defs>
    <style>
      .cls-1 {
        fill-rule: evenodd;
      }

      .cls-1, .cls-2 {
        fill: #0f6c31;
      }

      .cls-3 {
        fill: #1e1f1c;
      }
    </style>
  </defs>
  <path class="cls-1" d="M37.62,2.81c11.6,0,21,9.4,21,21,0,10.76-8.1,19.63-18.53,20.86,7.37-2.62,12.65-9.66,12.65-17.93,0-10.51-8.52-19.03-19.03-19.03-6.36,0-11.98,3.12-15.44,7.91,3.19-7.53,10.65-12.81,19.34-12.81"/>
  <path class="cls-2" d="M8.89,45.74c1.02-3.96,2.67-13.68,5.03-21.97,2.57-9.04,7.06-17.57,16.27-20.89C7.12,6.38,8.07,32.53,3.55,50.06c-.15.58.08,1.17.49,1.55.29.27.68.44,1.1.44,8.61-.12,17.24.29,25.84.02,6.26-.19,12.54-1.65,17.66-5.41,4.72-3.46,7.63-8.65,9.16-14.22-1.38,3.57-3.7,6.81-6.85,9.34-3.94,3.16-13.19,4.96-18.11,5.38-3.91.41-9.61.62-17.8.24-2.01-.05-3.7-.1-4.9-.08-.28,0-.55-.09-.76-.25-.04-.03-.08-.05-.12-.08-.03-.03-.07-.08-.12-.14-.11-.14-.17-.27-.18-.3-.06-.14-.1-.28-.11-.39,0,0,0,0,0,0,0,0,0,0,0,0-.01-.13,0-.27.03-.4"/>
  <path class="cls-3" d="M66.76,28.38c0-.97-.01-2,0-3.04.03-2.59-.07-5.19.15-7.76.31-3.62,2.41-5.71,6.04-6.31,2.41-.4,4.8-.32,7.04.78,3.04,1.5,4.11,4.19,4.21,7.36.18,5.99-4.17,8.67-8.28,8.93-3,.19-6.02.04-9.17.04h0ZM69.31,26.11c2.41-.14,4.78-.05,7.06-.45,3.66-.63,5.34-3.03,5.12-6.73-.17-2.85-1.8-4.77-4.62-5.16-1.22-.17-2.51-.14-3.73.07-2.42.42-3.77,2-3.83,4.33-.06,2.56-.01,5.12-.01,7.94h0Z"/>
  <path class="cls-3" d="M130.39,28.51h-2.41c-.04-.05-.1-.1-.1-.14.02-2.72-.07-5.45.11-8.16.27-3.96,3.7-5.08,6.41-4.74,1.63.21,2.79,1.1,3.66,2.53.17-.23.3-.38.42-.55,2.1-3.11,7.32-2.37,8.87.17.38.62.79,1.36.81,2.05.09,2.93.04,5.85.04,8.83h-2.34c-.01-.26-.04-.52-.04-.78,0-1.95.02-3.9-.02-5.85-.01-.66-.12-1.33-.32-1.96-.49-1.55-1.47-2.17-3.16-2.11-1.4.05-2.39.87-2.75,2.35-.13.54-.18,1.11-.19,1.66-.02,2.21,0,4.42,0,6.68h-2.51c-.01-.25-.04-.51-.04-.76,0-2.03.02-4.06-.01-6.09,0-.58-.1-1.17-.26-1.73-.4-1.36-1.34-2.07-2.68-2.11-1.62-.05-2.63.54-3.11,1.97-.23.7-.35,1.46-.36,2.19-.05,2.16-.02,4.32-.02,6.56h0Z"/>
  <path class="cls-3" d="M150.99,29.78c.74-.37,1.4-.7,2.1-1.05,1.54,1.98,3.61,2.36,5.9,1.93,2.02-.38,3.21-1.86,3.29-4.08-1.17,1.37-2.65,1.87-4.29,1.94-3.76.16-6.51-2.03-6.9-5.77-.24-2.34-.05-4.73-.05-7.15h2.43c0,1.06-.02,2.12,0,3.18.03,1.36-.06,2.74.16,4.07.39,2.34,2.18,3.48,4.81,3.28,2.27-.18,3.81-1.75,3.86-4.03.04-2.14,0-4.27,0-6.48h2.51c.01.23.04.46.04.7,0,3.13.03,6.25-.02,9.38-.01.92-.13,1.88-.39,2.76-.77,2.69-2.62,4.22-5.37,4.58-3.05.41-5.81-.14-7.8-2.76-.09-.12-.16-.27-.3-.5h0Z"/>
  <path class="cls-3" d="M98.83,23.4c.52,3.14,5.35,4.13,8.32,1.75.47.56.95,1.13,1.49,1.77-.33.23-.75.6-1.23.85-2.62,1.38-5.32,1.52-7.99.2-2.65-1.31-3.85-4.03-3.33-7.15.44-2.64,2.62-4.76,5.38-5.25,2.02-.36,3.94-.12,5.7.98,1.1.69,1.79,1.67,1.88,3,.13,2.02-1.1,3.49-3.28,3.67-1.99.17-4,.13-6,.18-.31,0-.63,0-.95,0h0ZM98.7,21.13c2.13,0,4.25.03,6.37-.02.65-.01,1.26-.3,1.44-1.05.16-.68-.21-1.37-.95-1.76-1.05-.56-2.2-.63-3.35-.46-2.01.3-3.27,1.52-3.51,3.29h0Z"/>
  <path class="cls-3" d="M125.26,28.49h-2.52v-1.49c-.31.24-.5.4-.69.54-2.79,2.09-7.15,1.64-9.47-.97-2.15-2.42-2.13-6.72.18-9.02,2.29-2.28,5.11-2.63,8.08-1.67,2.97.96,4.24,3.27,4.4,6.23.11,2.1.02,4.21.02,6.39ZM118.07,26.47c2.83.01,4.63-1.64,4.65-4.25.01-2.58-1.87-4.42-4.53-4.43-2.78-.02-4.62,1.68-4.63,4.29-.01,2.67,1.75,4.38,4.51,4.39h0Z"/>
  <path class="cls-3" d="M95.28,18.23c-.87-.17-1.59-.41-2.33-.43-2.58-.07-4.18,1.5-4.24,4.15-.04,1.87,0,3.74,0,5.61v.92h-2.54c0-.26,0-.55,0-.83.04-2.21-.1-4.45.15-6.64.44-3.83,3.57-6.09,7.41-5.55.85.12,1.68.38,2.61.59-.41.86-.75,1.54-1.05,2.18h0Z"/>
  <path class="cls-3" d="M128.85,39.74c.87,1.28,1.7,2.51,2.55,3.76-1.62.54-2.37.3-3.24-.99-.42-.62-.9-1.21-1.23-1.88-.42-.83-1.03-1-1.96-.74v3.75h-2.06v-9.63c1.9,0,3.73-.12,5.56,0,1.5.1,2.4,1.04,2.6,2.33.22,1.43-.39,2.53-1.79,3.2-.11.05-.23.11-.42.2h0ZM124.97,38c.99,0,1.99.04,2.93-.01.63-.03.95-.44.95-1.09,0-.68-.29-1.14-.98-1.18-.93-.05-1.87-.01-2.9-.01,0,.55-.03,1.94,0,2.3Z"/>
  <path class="cls-3" d="M108.15,39.33c0,3.76-3.25,5.71-6.63,3.96-.99-.51-1.7-1.31-1.77-2.45-.08-1.32-.04-2.65-.01-3.97,0-.33.13-.67.27-.97.71-1.52,2.76-2.34,4.86-1.98,1.96.34,3.1,1.51,3.26,3.37.04.51.03,1.87.03,2.04h0ZM105.9,38.85c0-.44.01-.89,0-1.33-.04-1.22-.7-1.84-1.96-1.86-1.28-.03-2.01.63-2.05,1.88-.03.82-.01,1.64,0,2.46.02,1.32.74,2.04,2.02,2.04,1.27,0,1.98-.73,2-2.06,0-.37,0-.75,0-1.13h0Z"/>
  <path class="cls-3" d="M133.5,42.62s0,0,0,0c-.07-.37.56-1.05.9-1.12.14-.03.29,0,.43.02.86.15,1.7.36,2.57.49.62.09,1.8.33,2.33-.12.15-.12.23-.31.3-.49.08-.24.12-.52.01-.75-.08-.18-.24-.31-.41-.41-1.5-.95-3.77-.28-5.03-1.68-.29-.32-.47-.73-.54-1.15-.13-.74.04-1.53.48-2.14.57-.79,1.48-1.13,2.41-1.29,1.71-.29,3.52.06,5,.96-.19.33-.3,1.08-.76,1.15-.1.02-.21,0-.32-.02-1.16-.19-2.34-.45-3.52-.37-.25.02-.51.06-.72.19-.26.16-.43.44-.45.75-.02.3.11.61.34.8.23.2.54.27.84.33,1.03.23,2.13.32,3.12.7.51.19.99.5,1.31.94.28.39.42.87.44,1.35.03.7-.21,1.41-.68,1.92-.83.9-2.23,1.14-3.4,1.18-1.36.05-2.73-.23-3.95-.81-.13-.06-.65-.25-.7-.4h0Z"/>
  <path class="cls-3" d="M97.79,35.7h-3.06v7.93h-2.14v-7.92h-3.18v-1.7h8.39v1.69h0Z"/>
  <path class="cls-3" d="M119.62,34.27h-2.07v2.25c0,1.2.01,2.39,0,3.59-.02,1.38-.74,2-2.09,2.02-1.35-.02-1.97-.64-1.99-2.02-.01-1.2,0-2.39,0-3.59v-2.25h-2.07c0,2.07-.01,4.09,0,6.11.01,1.77,1.02,3,2.68,3.35.46.1.92.14,1.35.15h0s.02,0,.02,0h.02c.44,0,.99-.06,1.45-.15,1.67-.35,2.67-1.58,2.68-3.35.01-2.02,0-4.04,0-6.11h0Z"/>
</svg>